<?xml version="1.0" standalone="no"?>
<!DOCTYPE svg PUBLIC "-//W3C//DTD SVG 20010904//EN"
 "http://www.w3.org/TR/2001/REC-SVG-20010904/DTD/svg10.dtd">
<svg version="1.0" xmlns="http://www.w3.org/2000/svg"
 width="1280.000000pt" height="904.000000pt" viewBox="0 0 1280.000000 904.000000"
 preserveAspectRatio="xMidYMid meet">

<g transform="translate(0.000000,904.000000) scale(0.100000,-0.100000)"
fill="#000000" stroke="none">
<path d="M10 4520 l0 -4520 6395 0 6395 0 0 4520 0 4520 -6395 0 -6395 0 0
-4520z m7510 1868 c19 -23 46 -53 60 -66 14 -14 35 -39 47 -55 12 -16 34 -38
50 -50 41 -32 40 -51 -7 -76 -22 -12 -47 -21 -56 -21 -8 0 -17 -6 -19 -12 -3
-7 -6 -375 -8 -818 -2 -695 -5 -812 -18 -855 -22 -69 -61 -157 -76 -173 -7 -7
-13 -17 -13 -22 0 -14 -113 -125 -160 -157 -67 -45 -172 -88 -184 -76 -3 4 -6
1 -6 -5 0 -14 -256 -17 -264 -3 -3 4 -20 11 -37 15 -40 8 -149 58 -149 68 0 4
-5 8 -12 8 -19 0 -131 112 -170 171 -20 31 -48 92 -63 136 l-25 79 2 514 3
515 39 13 c21 7 50 21 65 31 14 10 37 22 51 26 14 4 27 10 30 14 9 11 97 51
114 51 9 0 16 4 16 9 0 5 14 12 30 16 17 4 30 10 30 15 0 5 14 11 30 15 17 4
30 10 30 13 0 11 52 32 61 26 5 -3 9 0 9 5 0 6 7 11 15 11 8 0 15 4 15 9 0 5
14 12 30 16 17 4 30 11 30 16 0 5 6 9 13 9 7 0 29 9 50 20 20 11 39 20 42 20
3 0 5 -297 5 -659 0 -541 -3 -672 -15 -729 -19 -92 -43 -141 -73 -149 -34 -8
-111 4 -152 24 -62 32 -64 36 -33 95 l28 53 3 488 c2 407 0 487 -11 487 -8 0
-17 -3 -21 -7 -4 -5 -11 -8 -14 -9 -4 0 -20 -6 -35 -12 -16 -7 -33 -12 -38
-12 -5 0 -9 -4 -9 -9 0 -5 -13 -12 -30 -16 -16 -4 -30 -10 -30 -15 0 -4 -12
-11 -26 -14 l-25 -7 3 -427 3 -427 31 -65 c36 -76 79 -124 156 -174 39 -26
152 -38 232 -26 39 6 73 15 76 19 3 5 15 11 28 15 12 4 22 12 22 17 0 5 6 9
13 9 20 0 90 89 117 149 l25 56 3 744 2 743 -27 -7 c-15 -3 -30 -10 -33 -14
-3 -5 -16 -12 -30 -16 -14 -4 -28 -13 -32 -19 -4 -6 -8 0 -8 15 0 14 4 29 9
35 5 5 60 109 122 232 62 122 117 222 123 222 6 0 27 -19 46 -42z m-1338
-1460 l3 -453 29 -55 c32 -60 109 -143 144 -154 12 -4 22 -12 22 -17 0 -5 9
-9 20 -9 11 0 24 -8 27 -17 10 -27 21 -40 105 -125 42 -43 83 -78 92 -78 9 0
16 -7 16 -15 0 -12 -20 -15 -119 -15 -69 0 -122 4 -126 10 -3 6 -15 10 -26 10
-11 0 -40 9 -65 21 -160 72 -273 196 -336 366 -21 55 -22 77 -25 458 -2 220 0
405 4 410 10 12 96 55 112 55 6 0 11 4 11 9 0 5 14 12 30 16 17 4 30 10 30 15
0 7 16 15 42 19 4 0 9 -203 10 -451z m13 -1354 c123 -71 159 -242 79 -366
-103 -160 -430 -137 -498 33 -24 59 -23 176 2 231 45 99 133 141 279 134 77
-4 99 -9 138 -32z m1015 9 c25 -12 57 -34 72 -50 31 -32 53 -83 41 -94 -4 -4
-48 -15 -97 -23 -88 -15 -89 -15 -108 6 -26 30 -85 28 -111 -3 -22 -27 -21
-103 2 -130 28 -32 83 -29 116 7 13 14 28 23 33 20 5 -3 40 -10 78 -16 105
-16 105 -16 92 -48 -43 -100 -134 -152 -263 -152 -117 0 -214 49 -256 131 -26
51 -28 178 -4 235 28 67 86 116 160 135 56 15 196 4 245 -18z m1315 -5 c32
-17 63 -43 85 -74 34 -48 35 -51 35 -149 0 -94 -2 -102 -30 -145 -78 -117
-286 -146 -425 -59 -86 54 -124 185 -85 297 21 61 53 101 100 125 60 31 92 36
185 33 68 -2 95 -8 135 -28z m-3625 -223 l0 -245 -100 0 -100 0 0 245 0 245
100 0 100 0 0 -245z m390 156 l5 -84 65 86 65 87 118 0 c64 0 117 -3 117 -6 0
-5 -32 -45 -155 -193 -11 -13 -25 -29 -31 -34 -7 -8 -5 -17 7 -31 118 -141
179 -216 179 -220 0 -4 -51 -6 -113 -6 l-113 0 -72 91 -71 90 -3 -88 -3 -88
-102 -3 -103 -3 0 239 c0 131 3 242 7 246 4 4 50 5 103 4 l95 -3 5 -84z m2650
8 l0 -80 -120 3 c-89 2 -120 0 -120 -9 0 -9 32 -13 113 -15 l112 -3 0 -75 0
-75 -112 -3 -113 -3 0 -74 0 -75 -105 0 -105 0 0 238 c0 131 3 242 7 245 3 4
105 7 225 7 l218 0 0 -81z m-4697 -716 c12 -7 8 -30 -8 -43 -12 -10 -18 -10
-30 0 -12 10 -20 9 -40 -4 -14 -9 -25 -20 -26 -24 0 -4 -2 -15 -4 -24 -4 -23
23 -58 46 -58 10 0 28 5 38 12 24 14 53 3 49 -19 -9 -46 -110 -54 -154 -12
-19 18 -24 32 -24 73 1 56 13 78 56 101 26 14 72 13 97 -2z m249 -6 c42 -27
55 -104 24 -151 -35 -55 -121 -59 -163 -9 -43 54 -21 148 41 173 23 10 71 3
98 -13z m168 -8 c0 -10 4 -19 8 -19 4 0 18 -21 31 -47 l23 -48 25 50 c43 86
52 96 71 86 16 -8 18 -24 18 -108 -1 -94 -2 -98 -23 -101 -21 -3 -23 1 -23 45
l0 48 -24 -45 c-32 -61 -60 -65 -83 -13 l-17 38 -5 -35 c-5 -26 -11 -35 -26
-35 -18 0 -20 8 -23 99 -2 69 1 102 9 107 18 11 39 -1 39 -22z m400 6 c26 -23
26 -76 1 -99 -10 -9 -35 -19 -54 -23 -31 -5 -36 -9 -39 -37 -2 -23 -8 -31 -23
-31 -18 0 -20 8 -23 94 -1 52 0 101 3 109 8 21 108 11 135 -13z m135 13 c3 -7
6 -44 8 -83 l2 -70 50 -5 c42 -4 50 -8 50 -25 0 -18 -7 -20 -75 -20 l-75 0 -3
94 c-2 60 1 98 9 107 14 17 28 18 34 2z m333 -15 c3 -21 0 -23 -47 -23 -39 0
-51 -4 -51 -15 0 -10 10 -15 33 -15 37 0 58 -15 50 -36 -3 -9 -20 -14 -44 -14
-32 0 -39 -4 -39 -19 0 -17 8 -20 48 -23 40 -3 47 -6 50 -26 3 -22 2 -23 -75
-20 l-78 3 -3 99 c-2 73 1 102 10 108 7 4 42 7 78 6 59 -3 65 -5 68 -25z m148
-8 l27 -36 39 38 c36 35 39 36 55 20 16 -16 15 -19 -19 -54 l-37 -38 35 -40
c61 -72 29 -107 -36 -40 l-34 35 -36 -35 c-20 -19 -41 -35 -48 -35 -28 0 -22
31 12 72 l36 42 -30 31 c-29 30 -37 54 -23 68 14 15 33 5 59 -28z m482 8 c3
-18 -2 -23 -20 -24 -61 -3 -72 -5 -75 -16 -3 -8 11 -13 39 -15 35 -2 43 -7 43
-23 0 -16 -8 -21 -42 -23 l-43 -3 0 -45 c0 -41 -2 -45 -22 -42 -22 3 -23 8
-26 97 -1 52 0 101 2 108 4 10 23 13 73 11 62 -3 68 -5 71 -25z m121 13 c8 -9
11 -47 9 -107 -3 -93 -3 -94 -28 -94 -25 0 -25 1 -28 94 -3 87 5 121 28 121 4
0 13 -6 19 -14z m162 -38 l34 -53 3 42 c4 50 24 72 48 52 12 -10 15 -31 12
-108 -3 -89 -5 -96 -24 -99 -16 -2 -29 10 -55 50 l-34 53 -5 -50 c-4 -42 -8
-50 -25 -50 -18 0 -20 7 -22 95 -1 52 0 101 2 108 9 25 34 10 66 -40z m280 31
c31 -56 79 -175 75 -186 -10 -25 -47 -14 -57 17 -15 42 -57 42 -81 0 -18 -32
-45 -39 -55 -15 -5 15 43 135 73 183 16 25 33 25 45 1z m221 -38 l37 -53 3 54
c3 45 6 53 23 53 19 0 20 -7 20 -105 0 -91 -2 -105 -17 -108 -11 -2 -29 13
-50 43 l-33 47 -5 -44 c-4 -38 -8 -43 -30 -43 -25 0 -25 1 -26 95 -1 137 15
150 78 61z m309 40 c22 -18 23 -21 8 -36 -13 -13 -21 -15 -35 -7 -25 14 -61
-4 -69 -35 -9 -37 20 -77 51 -69 13 3 35 9 49 12 21 5 25 3 25 -14 0 -42 -66
-64 -124 -42 -35 13 -59 64 -53 112 11 81 93 124 148 79z m257 -5 c5 -24 -14
-36 -60 -36 -52 0 -48 -18 5 -22 35 -2 43 -7 45 -25 3 -21 -1 -23 -42 -23 -39
0 -46 -3 -46 -20 0 -17 7 -20 50 -20 47 0 50 -2 50 -25 0 -26 0 -26 -77 -23
l-78 3 -3 94 c-4 118 0 123 87 119 55 -3 66 -6 69 -22z m251 10 c8 -9 11 -47
9 -107 -3 -93 -3 -94 -28 -94 -25 0 -25 1 -28 94 -3 87 5 121 28 121 4 0 13
-6 19 -14z m201 -3 c35 -20 43 -45 23 -72 -8 -12 -10 -21 -4 -21 6 0 13 -17
17 -37 6 -31 3 -39 -16 -55 -52 -42 -145 -9 -138 50 4 37 35 42 48 8 6 -16 17
-26 29 -26 35 0 34 20 -2 35 -40 16 -53 31 -62 66 -5 21 -1 31 21 48 32 25 47
26 84 4z m357 0 c28 -25 37 -57 19 -73 -14 -11 -14 -14 -1 -27 23 -22 19 -69
-7 -87 -32 -23 -94 -20 -118 4 -21 21 -27 64 -11 74 15 10 39 -4 44 -25 3 -11
14 -19 25 -19 38 0 34 21 -7 37 -63 25 -76 92 -23 122 26 16 57 13 79 -6z
m158 -93 c0 -95 -2 -105 -19 -108 -27 -6 -33 11 -35 102 -2 97 4 118 33 114
20 -3 21 -9 21 -108z m162 41 l38 -69 30 60 c34 67 48 83 69 75 10 -4 13 -29
12 -109 -1 -103 -1 -103 -26 -103 -20 0 -26 6 -28 29 l-4 29 -18 -28 c-10 -16
-17 -32 -15 -35 3 -4 -7 -5 -21 -2 -16 3 -32 18 -44 41 l-19 36 -1 -38 c0 -34
-3 -38 -22 -35 -22 3 -23 8 -26 97 -1 52 -1 100 2 108 12 29 37 10 73 -56z
m371 49 c22 -21 27 -46 16 -87 -6 -20 -37 -38 -79 -45 -13 -2 -22 -13 -25 -33
-4 -22 -11 -30 -25 -30 -18 0 -20 8 -23 94 -1 52 -1 100 2 108 9 22 108 17
134 -7z m146 4 c3 -9 6 -47 6 -85 l0 -69 51 0 c47 0 50 -2 47 -22 -3 -22 -8
-23 -78 -23 l-75 0 -3 94 c-1 52 -1 100 2 108 7 18 43 16 50 -3z m221 -21 l31
-36 30 36 c32 40 45 45 64 22 10 -12 6 -23 -26 -62 -22 -26 -40 -51 -40 -55
-1 -5 -2 -26 -3 -48 -1 -36 -4 -40 -26 -40 -24 0 -25 3 -25 54 0 30 -3 56 -7
58 -5 2 -23 20 -42 40 -29 31 -32 40 -21 53 19 22 30 19 65 -22z m476 21 c11
-14 10 -18 -6 -31 -11 -8 -35 -13 -54 -11 -20 2 -36 -2 -38 -9 -3 -8 11 -13
39 -15 35 -2 43 -7 43 -23 0 -16 -8 -21 -42 -23 -35 -3 -43 -7 -43 -23 0 -16
7 -19 49 -19 36 0 50 -4 55 -17 4 -9 3 -20 -1 -24 -10 -10 -136 -14 -151 -5
-17 10 -16 203 1 209 6 3 40 6 73 6 45 1 65 -3 75 -15z m146 -16 l33 -32 35
34 c29 28 37 31 50 20 22 -18 19 -32 -16 -67 l-30 -32 37 -40 c38 -43 40 -71
5 -71 -11 0 -33 17 -50 37 l-30 36 -34 -36 c-35 -39 -77 -50 -77 -21 0 9 16
34 36 56 l36 40 -31 32 c-30 31 -38 55 -24 69 12 13 27 7 60 -25z m351 16 c17
-11 22 -25 22 -57 0 -36 -4 -45 -29 -60 -16 -9 -41 -17 -56 -17 -24 0 -26 -3
-23 -32 3 -29 0 -33 -22 -33 -25 0 -25 1 -28 94 -1 52 -1 100 2 108 8 19 106
17 134 -3z m146 0 c3 -9 6 -47 6 -84 l0 -69 48 -3 c39 -3 47 -6 47 -23 0 -17
-9 -21 -65 -26 -36 -3 -71 -1 -77 4 -14 10 -19 198 -6 210 12 13 41 7 47 -9z
m332 -18 c41 -41 45 -90 13 -142 -36 -59 -132 -59 -169 0 -24 39 -26 76 -5
116 36 69 106 81 161 26z m251 12 c29 -27 29 -63 0 -92 l-23 -23 24 -21 c29
-27 27 -69 -3 -64 -11 2 -35 18 -52 35 l-33 31 0 -27 c0 -19 -7 -30 -22 -36
-33 -12 -38 3 -39 110 -1 105 2 109 75 109 37 0 55 -5 73 -22z m264 -10 c4
-15 4 -27 1 -26 -4 0 -32 0 -61 -1 -60 -1 -60 -17 -1 -23 27 -2 36 -8 38 -25
3 -19 -2 -22 -40 -25 -29 -2 -44 -8 -46 -19 -2 -12 7 -16 45 -18 52 -2 69 -11
59 -36 -5 -13 -19 -15 -83 -13 l-78 3 -3 93 c-4 119 -1 124 91 120 67 -3 71
-4 78 -30z m201 2 c29 -29 30 -34 26 -92 -5 -75 -28 -98 -93 -98 -71 0 -70 0
-67 103 1 50 5 98 7 105 3 7 23 12 50 12 38 0 52 -5 77 -30z"/>
<path d="M6013 3442 c-72 -11 -70 -166 2 -173 63 -5 95 24 95 85 -1 64 -38 97
-97 88z"/>
<path d="M8352 3442 c-49 -8 -72 -93 -38 -144 15 -23 26 -28 56 -28 21 0 45 7
53 15 40 40 27 137 -21 152 -15 5 -37 7 -50 5z"/>
<path d="M3403 2755 c-48 -33 -14 -115 41 -101 33 8 45 50 25 85 -18 32 -37
36 -66 16z"/>
<path d="M3970 2751 c0 -17 6 -21 31 -21 24 0 30 4 27 18 -2 10 -14 18 -31 20
-22 3 -27 -1 -27 -17z"/>
<path d="M6914 2759 c-3 -6 0 -15 7 -20 23 -14 30 -10 19 11 -12 23 -16 24
-26 9z"/>
<path d="M7260 2751 c0 -5 9 -11 19 -14 14 -3 18 -1 14 9 -6 15 -33 19 -33 5z"/>
<path d="M7938 2762 c-31 -6 -21 -32 12 -32 17 0 30 4 30 9 0 14 -24 28 -42
23z"/>
<path d="M9263 2748 c2 -7 14 -13 27 -13 13 0 25 6 28 13 2 8 -7 12 -28 12
-21 0 -30 -4 -27 -12z"/>
<path d="M9722 2748 c-27 -27 -4 -98 32 -98 16 0 56 38 56 53 0 43 -60 73 -88
45z"/>
<path d="M9994 2759 c-8 -13 25 -24 37 -12 7 7 3 12 -10 16 -12 3 -24 1 -27
-4z"/>
<path d="M10470 2707 c0 -49 2 -55 19 -50 22 6 37 49 22 66 -5 7 -9 17 -10 22
0 6 -7 11 -15 13 -13 3 -16 -7 -16 -51z"/>
</g>
</svg>
